<svg xmlns="http://www.w3.org/2000/svg" viewBox="0 0 512 512">
  <defs>
    <linearGradient id="bg" x1="0" y1="0" x2="1" y2="1">
      <stop offset="0" stop-color="#fffdf8"/>
      <stop offset="1" stop-color="#f2eee5"/>
    </linearGradient>
  </defs>
  <rect width="512" height="512" rx="112" fill="url(#bg)"/>
  <circle cx="272" cy="188" r="118" fill="#9fd0d5"/>
  <path d="M190 151c23-35 55-54 94-58 18 13 22 26 11 39-15 17-10 31 9 39 22 9 30 28 19 49-9 18-27 29-53 32-40-10-67-44-80-101z" fill="#f4f1df" opacity=".95"/>
  <path d="M309 93c24 5 45 16 62 33-6 18-18 27-36 28-18 1-29-8-33-26-3-12-1-24 7-35z" fill="#f4f1df"/>
  <path d="M370 146c29 21 47 49 52 83-17 11-32 10-46-3-15-15-15-35 0-58l-6-22z" fill="#f4f1df"/>
  <path d="M291 180c46 7 84 23 115 48l-31 25c-27-20-57-33-91-40z" fill="#cdd9b8"/>
  <path d="M188 212l73-42 81 38-77 50z" fill="#edf0dd" stroke="#ffffff" stroke-width="10"/>
  <path d="M340 205l75-27 46 46-82 35z" fill="#dfe9d0" stroke="#ffffff" stroke-width="10"/>
  <path d="M233 207l30 52 15 73-71 32-45-61z" fill="#d7e6ef" stroke="#ffffff" stroke-width="10"/>
  <path d="M280 260l99-5 30 71-101 8z" fill="#c8dde7" stroke="#ffffff" stroke-width="10"/>
  <g transform="translate(86 181)">
    <rect x="0" y="52" width="170" height="212" rx="34" fill="#f1d7b4" stroke="#24384a" stroke-width="14"/>
    <rect x="48" y="6" width="74" height="73" rx="20" fill="none" stroke="#24384a" stroke-width="14"/>
    <rect x="30" y="99" width="60" height="46" rx="12" fill="#78a8cf" transform="rotate(-9 60 122)"/>
    <path d="M51 122l21-14 18 10-19 14z" fill="#fff"/>
    <circle cx="116" cy="178" r="24" fill="#efad98"/>
    <path d="M105 178l10 9 17-22" fill="none" stroke="#24384a" stroke-width="7" stroke-linecap="round"/>
    <circle cx="34" cy="268" r="13" fill="#24384a"/><circle cx="136" cy="268" r="13" fill="#24384a"/>
  </g>
  <g transform="translate(284 248) rotate(6 84 105)">
    <rect x="0" y="0" width="164" height="208" rx="26" fill="#fffaf0" stroke="#24384a" stroke-width="12"/>
    <g stroke="#24384a" stroke-width="7" fill="none" stroke-linecap="round">
      <rect x="26" y="48" width="26" height="26" rx="5"/><path d="M31 60l7 7 14-17"/>
      <rect x="26" y="88" width="26" height="26" rx="5"/><path d="M31 100l7 7 14-17"/>
      <rect x="26" y="128" width="26" height="26" rx="5"/><path d="M31 140l7 7 14-17"/>
      <path d="M72 61h60M72 101h60M72 141h60"/>
    </g>
    <circle cx="36" cy="5" r="8" fill="#24384a"/><circle cx="72" cy="5" r="8" fill="#24384a"/><circle cx="108" cy="5" r="8" fill="#24384a"/><circle cx="144" cy="5" r="8" fill="#24384a"/>
  </g>
  <path d="M321 126c42-28 77-31 106-9" fill="none" stroke="#24384a" stroke-width="10" stroke-linecap="round"/>
  <path d="M421 99l31 12-28 18 7-14z" fill="#24384a"/>
</svg>