<svg xmlns="http://www.w3.org/2000/svg" viewBox="0 0 512 512">
  <defs>
    <linearGradient id="bg" x1="0" y1="0" x2="1" y2="1">
      <stop offset="0" stop-color="#18324A"/>
      <stop offset="1" stop-color="#244B66"/>
    </linearGradient>
  </defs>
  <rect width="512" height="512" rx="116" fill="url(#bg)"/>
  <circle cx="256" cy="256" r="154" fill="#FFF8EC"/>

  <!-- eye / observation -->
  <path d="M122 258c34-62 82-94 134-94s100 32 134 94c-34 62-82 94-134 94s-100-32-134-94z" fill="#F3D9B4"/>
  <path d="M142 258c30-48 70-72 114-72s84 24 114 72c-30 48-70 72-114 72s-84-24-114-72z" fill="#FFF8EC"/>

  <!-- compass / location core -->
  <circle cx="256" cy="258" r="74" fill="#8EC5CE"/>
  <path d="M256 206c30 0 54 24 54 54 0 39-54 88-54 88s-54-49-54-88c0-30 24-54 54-54z" fill="#E79A5F"/>
  <circle cx="256" cy="260" r="20" fill="#FFF8EC"/>

  <!-- small compass needle -->
  <path d="M256 120l13 31 31 13-31 13-13 31-13-31-31-13 31-13z" fill="#FFF8EC" opacity=".95"/>

  <!-- journey marks -->
  <circle cx="132" cy="382" r="10" fill="#E79A5F"/>
  <circle cx="166" cy="401" r="7" fill="#F3D9B4"/>
  <path d="M350 386c22-6 41-18 58-36" fill="none" stroke="#F3D9B4" stroke-width="12" stroke-linecap="round"/>
  <path d="M405 337l3 26-25-4z" fill="#F3D9B4"/>
</svg>